<svg  xmlns="http://www.w3.org/2000/svg"><use xmlns:xlink="http://www.w3.org/1999/xlink" xlink:href="#res-x">
<svg viewBox="0 0 1024 1024" id="res-x" width="100%" height="100%"><path fill-rule="evenodd" d="M480.518 512L8.377 984.141c-8.853 8.853-8.777 22.871-.083 31.565 8.754 8.754 22.825 8.656 31.565-.083L512 543.482l472.141 472.141c8.853 8.853 22.871 8.777 31.565.083 8.754-8.754 8.656-22.825-.083-31.565L543.482 512l472.141-472.141c8.853-8.853 8.777-22.871.083-31.565-8.754-8.754-22.825-8.656-31.565.083L512 480.518 39.859 8.377C31.006-.476 16.988-.4 8.294 8.294c-8.754 8.754-8.656 22.825.083 31.565L480.518 512z" class="path1 fill-color3"></path></svg>
</use></svg>
