<svg xmlns="http://www.w3.org/2000/svg">
<defs>
  <symbol viewBox="0 0 60 10" id="star-actived.d4c54d1">
    <defs>
      <linearGradient id="star-actived.d4c54d1_a" x1="0%" y1="50%" y2="50%">
        <stop offset="0%" stop-color="#FFDE00"></stop>
        <stop offset="100%" stop-color="#FFB000"></stop>
      </linearGradient>
    </defs>
    <path fill="url(#star-actived.d4c54d1_a)" fill-rule="evenodd" d="M54.017 8.072l-2.552 1.561c-.476.291-.758.096-.626-.455l.696-2.909-2.273-1.944c-.424-.362-.325-.691.239-.736l2.982-.237L53.63.589c.213-.515.557-.523.774 0l1.146 2.763 2.982.237c.556.044.67.368.24.736l-2.274 1.944.696 2.91c.13.542-.143.75-.626.454l-2.551-1.56zm-48 0L3.465 9.633c-.476.291-.758.096-.626-.455l.696-2.909-2.273-1.944c-.424-.362-.325-.691.239-.736l2.982-.237L5.63.589c.213-.515.557-.523.774 0L7.55 3.352l2.982.237c.556.044.67.368.24.736L8.497 6.269l.696 2.91c.13.542-.143.75-.626.454l-2.551-1.56zm12 0l-2.552 1.561c-.476.291-.758.096-.626-.455l.696-2.909-2.273-1.944c-.424-.362-.325-.691.239-.736l2.982-.237L17.63.589c.213-.515.557-.523.774 0l1.146 2.763 2.982.237c.556.044.67.368.24.736l-2.274 1.944.696 2.91c.13.542-.143.75-.626.454l-2.551-1.56zm12 0l-2.552 1.561c-.476.291-.758.096-.626-.455l.696-2.909-2.273-1.944c-.424-.362-.325-.691.239-.736l2.982-.237L29.63.589c.213-.515.557-.523.774 0l1.146 2.763 2.982.237c.556.044.67.368.24.736l-2.274 1.944.696 2.91c.13.542-.143.75-.626.454l-2.551-1.56zm12 0l-2.552 1.561c-.476.291-.758.096-.626-.455l.696-2.909-2.273-1.944c-.424-.362-.325-.691.239-.736l2.982-.237L41.63.589c.213-.515.557-.523.774 0l1.146 2.763 2.982.237c.556.044.67.368.24.736l-2.274 1.944.696 2.91c.13.542-.143.75-.626.454l-2.551-1.56z"></path></symbol><symbol viewBox="0 0 60 10" id="star-gray.cc081b9"><path fill="#EEE" fill-rule="evenodd" d="M54.017 8.072l-2.552 1.561c-.476.291-.758.096-.626-.455l.696-2.909-2.273-1.944c-.424-.362-.325-.691.239-.736l2.982-.237L53.63.589c.213-.515.557-.523.774 0l1.146 2.763 2.982.237c.556.044.67.368.24.736l-2.274 1.944.696 2.91c.13.542-.143.75-.626.454l-2.551-1.56zm-48 0L3.465 9.633c-.476.291-.758.096-.626-.455l.696-2.909-2.273-1.944c-.424-.362-.325-.691.239-.736l2.982-.237L5.63.589c.213-.515.557-.523.774 0L7.55 3.352l2.982.237c.556.044.67.368.24.736L8.497 6.269l.696 2.91c.13.542-.143.75-.626.454l-2.551-1.56zm12 0l-2.552 1.561c-.476.291-.758.096-.626-.455l.696-2.909-2.273-1.944c-.424-.362-.325-.691.239-.736l2.982-.237L17.63.589c.213-.515.557-.523.774 0l1.146 2.763 2.982.237c.556.044.67.368.24.736l-2.274 1.944.696 2.91c.13.542-.143.75-.626.454l-2.551-1.56zm12 0l-2.552 1.561c-.476.291-.758.096-.626-.455l.696-2.909-2.273-1.944c-.424-.362-.325-.691.239-.736l2.982-.237L29.63.589c.213-.515.557-.523.774 0l1.146 2.763 2.982.237c.556.044.67.368.24.736l-2.274 1.944.696 2.91c.13.542-.143.75-.626.454l-2.551-1.56zm12 0l-2.552 1.561c-.476.291-.758.096-.626-.455l.696-2.909-2.273-1.944c-.424-.362-.325-.691.239-.736l2.982-.237L41.63.589c.213-.515.557-.523.774 0l1.146 2.763 2.982.237c.556.044.67.368.24.736l-2.274 1.944.696 2.91c.13.542-.143.75-.626.454l-2.551-1.56z"></path>
  </symbol>
</defs>
<use xmlns:xlink="http://www.w3.org/1999/xlink" xlink:href="#star-actived.d4c54d1">
<svg viewBox="0 0 60 10" id="star-actived.d4c54d1" width="100%" height="100%"><path fill="url(#star-actived.d4c54d1_a)" fill-rule="evenodd" d="M54.017 8.072l-2.552 1.561c-.476.291-.758.096-.626-.455l.696-2.909-2.273-1.944c-.424-.362-.325-.691.239-.736l2.982-.237L53.63.589c.213-.515.557-.523.774 0l1.146 2.763 2.982.237c.556.044.67.368.24.736l-2.274 1.944.696 2.91c.13.542-.143.75-.626.454l-2.551-1.56zm-48 0L3.465 9.633c-.476.291-.758.096-.626-.455l.696-2.909-2.273-1.944c-.424-.362-.325-.691.239-.736l2.982-.237L5.63.589c.213-.515.557-.523.774 0L7.55 3.352l2.982.237c.556.044.67.368.24.736L8.497 6.269l.696 2.91c.13.542-.143.75-.626.454l-2.551-1.56zm12 0l-2.552 1.561c-.476.291-.758.096-.626-.455l.696-2.909-2.273-1.944c-.424-.362-.325-.691.239-.736l2.982-.237L17.63.589c.213-.515.557-.523.774 0l1.146 2.763 2.982.237c.556.044.67.368.24.736l-2.274 1.944.696 2.91c.13.542-.143.75-.626.454l-2.551-1.56zm12 0l-2.552 1.561c-.476.291-.758.096-.626-.455l.696-2.909-2.273-1.944c-.424-.362-.325-.691.239-.736l2.982-.237L29.63.589c.213-.515.557-.523.774 0l1.146 2.763 2.982.237c.556.044.67.368.24.736l-2.274 1.944.696 2.91c.13.542-.143.75-.626.454l-2.551-1.56zm12 0l-2.552 1.561c-.476.291-.758.096-.626-.455l.696-2.909-2.273-1.944c-.424-.362-.325-.691.239-.736l2.982-.237L41.63.589c.213-.515.557-.523.774 0l1.146 2.763 2.982.237c.556.044.67.368.24.736l-2.274 1.944.696 2.91c.13.542-.143.75-.626.454l-2.551-1.56z"></path></svg>
</use></svg>
